<svg xmlns="http://www.w3.org/2000/svg" version="1.1" xmlns:xlink="http://www.w3.org/1999/xlink" xmlns:svgjs="http://svgjs.dev/svgjs" width="1000" height="1000" viewBox="0 0 1000 1000"><rect width="1000" height="1000" fill="#ffffff"></rect><g transform="matrix(0.7,0,0,0.7,149.57575757575756,455.67706235878256)"><svg viewBox="0 0 396 50" data-background-color="#ffffff" preserveAspectRatio="xMidYMid meet" height="126" width="1000" xmlns="http://www.w3.org/2000/svg" xmlns:xlink="http://www.w3.org/1999/xlink"><g id="tight-bounds" transform="matrix(1,0,0,1,0.2400000000000091,0.12638188277628615)"><svg viewBox="0 0 395.52 49.74723623444742" height="49.74723623444742" width="395.52"><g><svg viewBox="0 0 492.045756151703 61.88793605743346" height="49.74723623444742" width="395.52"><g><rect width="4.038435558617482" height="45.005337002692194" x="72.59115378335231" y="8.441299527370631" fill="#00274c" opacity="1" stroke-width="0" stroke="transparent" fill-opacity="1" class="rect-qz-0" data-fill-palette-color="primary" rx="1%" id="qz-0" data-palette-color="#00274c"></rect></g><g><rect width="4.038435558617482" height="45.005337002692194" x="81.91549975900838" y="8.441299527370631" fill="#00274c" opacity="1" stroke-width="0" stroke="transparent" fill-opacity="1" class="rect-qz-1" data-fill-palette-color="primary" rx="1%" id="qz-1" data-palette-color="#00274c"></rect></g><g transform="matrix(1,0,0,1,96.52575615170304,8.553253102004192)"><svg viewBox="0 0 395.52 44.781429853425074" height="44.781429853425074" width="395.52"><g id="textblocktransform"><svg viewBox="0 0 395.52 44.781429853425074" height="44.781429853425074" width="395.52" id="textblock"><g><svg viewBox="0 0 395.52 44.781429853425074" height="44.781429853425074" width="395.52"><g transform="matrix(1,0,0,1,0,0)"><svg width="395.52" viewBox="-1.5 -37.75 334.26 37.85" height="44.781429853425074" data-palette-color="#00274c"><path d="M6.75-0.85L-1.5-0.3Q0.7-6.95 2.7-13.35L2.7-13.35Q3.55-16.05 4.45-19 5.35-21.95 6.25-24.85 7.15-27.75 7.93-30.45 8.7-33.15 9.3-35.45L9.3-35.45Q12.05-35.45 14.5-35.75 16.95-36.05 19.8-36.3L19.8-36.3Q19.65-35.2 19.48-33.83 19.3-32.45 19.07-30.95 18.85-29.45 18.6-27.85 18.35-26.25 18-23.75 17.65-21.25 17.05-17.5L17.05-17.5 17.7-17.5Q19.15-21.3 20.1-23.83 21.05-26.35 21.65-27.95 22.25-29.55 22.88-31.08 23.5-32.6 24.08-33.98 24.65-35.35 25.15-36.4L25.15-36.4Q26.4-36.5 27.5-36.65 28.6-36.8 29.7-36.98 30.8-37.15 31.93-37.33 33.05-37.5 34.4-37.75L34.4-37.75Q33.9-34.85 33.45-31.8 33-28.75 32.65-25.73 32.3-22.7 31.98-19.75 31.65-16.8 31.4-14.15L31.4-14.15Q30.8-7.95 30.35-2.05L30.35-2.05 21.65-0.5Q21.65-0.75 21.73-1.85 21.8-2.95 21.93-4.55 22.05-6.15 22.28-8.1 22.5-10.05 22.73-12 22.95-13.95 23.2-15.78 23.45-17.6 23.7-18.9L23.7-18.9 23.25-18.9Q22.55-16.8 21.7-14.48 20.85-12.15 19.98-9.75 19.1-7.35 18.25-5.05 17.4-2.75 16.75-0.65L16.75-0.65Q15-0.6 13.75-0.53 12.5-0.45 10.85-0.35L10.85-0.35 12.45-18.9 11.7-18.9Q11.6-18.25 11.2-16.73 10.8-15.2 10.28-13.23 9.75-11.25 9.15-9.13 8.55-7 8.03-5.18 7.5-3.35 7.15-2.18 6.8-1 6.75-0.85L6.75-0.85ZM43.5-1.35L34.5 0.05Q35.65-5.45 36.7-10.8L36.7-10.8Q37.15-13.05 37.6-15.5 38.05-17.95 38.47-20.33 38.9-22.7 39.22-24.93 39.55-27.15 39.8-29L39.8-29Q38.65-29.15 37.47-29.1 36.3-29.05 35.15-29.4L35.15-29.4Q35.2-30.2 35.2-31.25 35.2-32.3 35.25-33.35L35.25-33.35Q35.3-34.5 35.35-35.8L35.35-35.8Q36.65-35.7 37.95-35.65 39.25-35.6 40.55-35.6L40.55-35.6Q43.1-35.6 45.47-35.73 47.85-35.85 49.87-36.02 51.9-36.2 53.85-36.45L53.85-36.45 53.3-33.75Q53.05-32.6 52.82-31.4 52.6-30.2 52.4-29.35L52.4-29.35Q51.3-29.05 50.17-28.93 49.05-28.8 47.95-28.6L47.95-28.6Q47.6-26.9 47.2-24.83 46.8-22.75 46.42-20.53 46.05-18.3 45.7-16 45.35-13.7 45-11.6L45-11.6Q44.2-6.65 43.5-1.35L43.5-1.35ZM70.25-12.35Q70.25-9.55 69.17-7.28 68.09-5 66.27-3.35 64.45-1.7 61.97-0.8 59.5 0.1 56.65 0.1L56.65 0.1Q54.65 0.1 52.65-0.98 50.65-2.05 48.8-4.4L48.8-4.4 52.5-11.65Q52.85-11 53.55-10.33 54.25-9.65 55.12-9.15 56-8.65 56.87-8.33 57.75-8 58.45-8L58.45-8Q59.05-8 59.7-8.2 60.35-8.4 60.9-8.8 61.45-9.2 61.77-9.73 62.1-10.25 62.1-10.95L62.1-10.95Q62.1-12.15 61.32-13.18 60.55-14.2 59.4-15.13 58.25-16.05 56.9-17 55.55-17.95 54.42-19 53.3-20.05 52.5-21.35 51.7-22.65 51.7-24.25L51.7-24.25Q51.7-26.85 53.25-29.1 54.8-31.35 57.12-32.98 59.45-34.6 62.2-35.55 64.95-36.5 67.4-36.5L67.4-36.5Q68.75-36.5 69.95-36.18 71.15-35.85 72.02-35.13 72.9-34.4 73.42-33.3 73.95-32.2 73.95-30.55L73.95-30.55Q73.95-29.85 73.82-29.15 73.7-28.45 73.59-27.65L73.59-27.65 66.34-25.55Q66.45-25.95 66.52-26.35 66.59-26.75 66.59-27.15L66.59-27.15Q66.59-28.65 66.07-29.33 65.55-30 64.7-30L64.7-30Q64.3-30 63.72-29.7 63.15-29.4 62.57-28.93 62-28.45 61.6-27.8 61.2-27.15 61.2-26.4L61.2-26.4Q61.2-25.2 61.87-24.4 62.55-23.6 63.55-22.9 64.55-22.2 65.72-21.48 66.9-20.75 67.9-19.6 68.9-18.45 69.57-16.73 70.25-15 70.25-12.35L70.25-12.35ZM87.99-1Q86.74-0.8 85.24-0.55 83.74-0.3 82.54-0.1L82.54-0.1Q82.74-1.75 82.94-3.35L82.94-3.35Q83.09-4.75 83.22-6.15 83.34-7.55 83.44-8.55L83.44-8.55 79.09-8.55 77.09-1.35Q75.99-1.2 74.49-1.03 72.99-0.85 71.69-0.7L71.69-0.7Q70.09-0.5 68.54-0.3L68.54-0.3Q70.54-6.95 72.49-13.4L72.49-13.4Q73.29-16.1 74.17-19.05 75.04-22 75.92-24.93 76.79-27.85 77.59-30.55 78.39-33.25 78.99-35.5L78.99-35.5Q82.39-35.75 85.92-36.1 89.44-36.45 92.79-37.05L92.79-37.05Q92.64-35.45 92.47-33.08 92.29-30.7 92.14-27.9 91.99-25.1 91.84-22.05 91.69-19 91.54-16.05L91.54-16.05Q91.29-9.15 90.99-1.4L90.99-1.4Q89.49-1.15 87.99-1L87.99-1ZM83.39-26.1L80.29-13.55Q80.49-13.55 81.02-13.58 81.54-13.6 82.12-13.63 82.69-13.65 83.19-13.68 83.69-13.7 83.89-13.75L83.89-13.75Q83.89-14.05 83.97-14.78 84.04-15.5 84.12-16.43 84.19-17.35 84.29-18.45 84.39-19.55 84.49-20.6L84.49-20.6Q84.69-23.15 84.99-26.1L84.99-26.1 85.29-30.45 84.54-30.4 83.39-26.1ZM107.74-0.85L99.49-0.3Q101.69-6.95 103.69-13.35L103.69-13.35Q104.54-16.05 105.44-19 106.34-21.95 107.24-24.85 108.14-27.75 108.91-30.45 109.69-33.15 110.29-35.45L110.29-35.45Q113.04-35.45 115.49-35.75 117.94-36.05 120.79-36.3L120.79-36.3Q120.64-35.2 120.46-33.83 120.29-32.45 120.06-30.95 119.84-29.45 119.59-27.85 119.34-26.25 118.99-23.75 118.64-21.25 118.04-17.5L118.04-17.5 118.69-17.5Q120.14-21.3 121.09-23.83 122.04-26.35 122.64-27.95 123.24-29.55 123.86-31.08 124.49-32.6 125.06-33.98 125.64-35.35 126.14-36.4L126.14-36.4Q127.39-36.5 128.49-36.65 129.59-36.8 130.69-36.98 131.79-37.15 132.91-37.33 134.04-37.5 135.39-37.75L135.39-37.75Q134.89-34.85 134.44-31.8 133.99-28.75 133.64-25.73 133.29-22.7 132.96-19.75 132.64-16.8 132.39-14.15L132.39-14.15Q131.79-7.95 131.34-2.05L131.34-2.05 122.64-0.5Q122.64-0.75 122.71-1.85 122.79-2.95 122.91-4.55 123.04-6.15 123.26-8.1 123.49-10.05 123.71-12 123.94-13.95 124.19-15.78 124.44-17.6 124.69-18.9L124.69-18.9 124.24-18.9Q123.54-16.8 122.69-14.48 121.84-12.15 120.96-9.75 120.09-7.35 119.24-5.05 118.39-2.75 117.74-0.65L117.74-0.65Q115.99-0.6 114.74-0.53 113.49-0.45 111.84-0.35L111.84-0.35 113.44-18.9 112.69-18.9Q112.59-18.25 112.19-16.73 111.79-15.2 111.26-13.23 110.74-11.25 110.14-9.13 109.54-7 109.01-5.18 108.49-3.35 108.14-2.18 107.79-1 107.74-0.85L107.74-0.85ZM150.34-1Q149.09-0.8 147.59-0.55 146.09-0.3 144.88-0.1L144.88-0.1Q145.09-1.75 145.28-3.35L145.28-3.35Q145.44-4.75 145.56-6.15 145.69-7.55 145.78-8.55L145.78-8.55 141.44-8.55 139.44-1.35Q138.34-1.2 136.84-1.03 135.34-0.85 134.03-0.7L134.03-0.7Q132.44-0.5 130.88-0.3L130.88-0.3Q132.88-6.95 134.84-13.4L134.84-13.4Q135.63-16.1 136.51-19.05 137.38-22 138.26-24.93 139.13-27.85 139.94-30.55 140.74-33.25 141.34-35.5L141.34-35.5Q144.74-35.75 148.26-36.1 151.78-36.45 155.13-37.05L155.13-37.05Q154.99-35.45 154.81-33.08 154.63-30.7 154.49-27.9 154.34-25.1 154.19-22.05 154.03-19 153.88-16.05L153.88-16.05Q153.63-9.15 153.34-1.4L153.34-1.4Q151.84-1.15 150.34-1L150.34-1ZM145.74-26.1L142.63-13.55Q142.84-13.55 143.36-13.58 143.88-13.6 144.46-13.63 145.03-13.65 145.53-13.68 146.03-13.7 146.24-13.75L146.24-13.75Q146.24-14.05 146.31-14.78 146.38-15.5 146.46-16.43 146.53-17.35 146.63-18.45 146.74-19.55 146.84-20.6L146.84-20.6Q147.03-23.15 147.34-26.1L147.34-26.1 147.63-30.45 146.88-30.4 145.74-26.1ZM161.88-2.05L153.78 0.05Q155.13-6.6 156.38-12.95L156.38-12.95Q156.83-15.65 157.38-18.57 157.93-21.5 158.41-24.38 158.88-27.25 159.31-29.93 159.73-32.6 159.98-34.8L159.98-34.8Q162.83-35.7 166.13-36.13 169.43-36.55 172.68-36.55L172.68-36.55Q174.63-36.55 175.91-36.1 177.18-35.65 177.91-34.83 178.63-34 178.93-32.9 179.23-31.8 179.23-30.45L179.23-30.45Q179.23-28.45 178.53-26.53 177.83-24.6 176.66-22.88 175.48-21.15 173.96-19.73 172.43-18.3 170.68-17.4L170.68-17.4Q171.58-15.4 172.61-13.03 173.63-10.65 174.53-8.5L174.53-8.5Q175.53-6 176.58-3.5L176.58-3.5 168.83-0.8Q167.83-4.25 167.03-7.3L167.03-7.3Q166.68-8.55 166.33-9.88 165.98-11.2 165.68-12.38 165.38-13.55 165.18-14.45 164.98-15.35 164.93-15.85L164.93-15.85 164.28-15.65Q163.98-14.05 163.56-11.75 163.13-9.45 162.78-7.3L162.78-7.3Q162.33-4.75 161.88-2.05L161.88-2.05ZM167.13-29.6L165.53-21.65Q166.48-21.75 167.86-22.45 169.23-23.15 170.48-24.13 171.73-25.1 172.63-26.15 173.53-27.2 173.53-28L173.53-28Q173.53-28.55 173.18-28.88 172.83-29.2 172.21-29.38 171.58-29.55 170.83-29.6 170.08-29.65 169.28-29.65L169.28-29.65Q168.73-29.65 168.16-29.63 167.58-29.6 167.13-29.6L167.13-29.6ZM184.23-1.15L176.13 0.05Q177.63-6.95 178.93-13.55L178.93-13.55Q179.43-16.4 179.98-19.45 180.53-22.5 181.01-25.5 181.48-28.5 181.86-31.33 182.23-34.15 182.43-36.45L182.43-36.45Q183.58-36.35 185.03-36.27 186.48-36.2 187.73-36.1L187.73-36.1Q189.23-36 190.73-36L190.73-36Q190.68-35.8 190.58-35.25 190.48-34.7 190.33-33.93 190.18-33.15 190.01-32.2 189.83-31.25 189.63-30.3L189.63-30.3Q189.23-28.1 188.73-25.35L188.73-25.35 189.03-25.4Q189.53-26.2 190.46-27.63 191.38-29.05 192.38-30.65 193.38-32.25 194.33-33.73 195.28-35.2 195.93-36.25L195.93-36.25Q198.43-36.45 200.93-36.7 203.43-36.95 205.93-37.35L205.93-37.35Q203.58-34.2 201.38-31.15L201.38-31.15Q200.43-29.85 199.46-28.45 198.48-27.05 197.53-25.7 196.58-24.35 195.76-23.1 194.93-21.85 194.28-20.8L194.28-20.8Q195.38-15.75 196.88-11.05 198.38-6.35 199.93-1.45L199.93-1.45Q198.78-1.5 197.58-1.53 196.38-1.55 195.23-1.55L195.23-1.55Q193.78-1.55 192.43-1.53 191.08-1.5 189.63-1.45L189.63-1.45Q189.18-4.7 188.66-8.28 188.13-11.85 187.68-15.1L187.68-15.1 186.78-14.05Q186.43-12.55 186.01-10.35 185.58-8.15 185.18-6.1L185.18-6.1Q184.73-3.7 184.23-1.15L184.23-1.15ZM215.43-2.45L199.28 0.05 205.83-35.5 221.63-36.85Q221.28-35.75 221.03-34.6L221.03-34.6Q220.78-33.65 220.55-32.63 220.33-31.6 220.18-30.8L220.18-30.8Q219.68-30.75 218.75-30.73 217.83-30.7 216.78-30.68 215.73-30.65 214.65-30.65 213.58-30.65 212.78-30.65L212.78-30.65 211.03-21.7Q212.58-21.8 213.93-21.85L213.93-21.85Q215.03-21.9 216.18-21.9 217.33-21.9 217.88-21.95L217.88-21.95Q217.68-20.55 217.5-19.2 217.33-17.85 217.08-16.45L217.08-16.45Q216.58-16.4 215.45-16.38 214.33-16.35 213.18-16.3L213.18-16.3Q211.88-16.25 210.33-16.2L210.33-16.2 208.63-7 215.93-8.15 215.43-2.45ZM229.43-1.35L220.43 0.05Q221.58-5.45 222.63-10.8L222.63-10.8Q223.08-13.05 223.53-15.5 223.98-17.95 224.4-20.33 224.83-22.7 225.15-24.93 225.48-27.15 225.73-29L225.73-29Q224.58-29.15 223.4-29.1 222.23-29.05 221.08-29.4L221.08-29.4Q221.13-30.2 221.13-31.25 221.13-32.3 221.18-33.35L221.18-33.35Q221.23-34.5 221.28-35.8L221.28-35.8Q222.58-35.7 223.88-35.65 225.18-35.6 226.48-35.6L226.48-35.6Q229.03-35.6 231.4-35.73 233.78-35.85 235.8-36.02 237.83-36.2 239.78-36.45L239.78-36.45 239.23-33.75Q238.98-32.6 238.75-31.4 238.53-30.2 238.33-29.35L238.33-29.35Q237.23-29.05 236.1-28.93 234.98-28.8 233.88-28.6L233.88-28.6Q233.53-26.9 233.13-24.83 232.73-22.75 232.35-20.53 231.98-18.3 231.63-16 231.28-13.7 230.93-11.6L230.93-11.6Q230.13-6.65 229.43-1.35L229.43-1.35ZM242.52-1.65L233.87 0.05Q235.37-6.7 236.72-13.15L236.72-13.15Q237.27-15.85 237.87-18.85 238.47-21.85 239.02-24.75 239.57-27.65 240.07-30.35 240.57-33.05 240.92-35.3L240.92-35.3Q242.37-35.75 243.77-36.08 245.17-36.4 246.65-36.65 248.12-36.9 249.42-36.9L249.42-36.9Q251.67-36.9 253.2-36.15 254.72-35.4 255.67-34.13 256.62-32.85 257.02-31.15 257.42-29.45 257.42-27.5L257.42-27.5Q257.42-24.7 256.4-22.1 255.37-19.5 253.65-17.48 251.92-15.45 249.7-14.25 247.47-13.05 245.07-13.05L245.07-13.05 244.52-13.05Q244.12-11.35 243.77-9.35 243.42-7.35 243.17-5.65L243.17-5.65Q242.82-3.65 242.52-1.65L242.52-1.65ZM247.82-30.85Q247.27-27.55 246.72-24.6 246.17-21.65 245.52-18.3L245.52-18.3Q246.32-18.5 247.2-19.23 248.07-19.95 248.82-21.13 249.57-22.3 250.02-23.85 250.47-25.4 250.47-27.1L250.47-27.1Q250.47-28.95 249.65-29.9 248.82-30.85 247.82-30.85L247.82-30.85ZM266.77-1.6Q265.22-1.6 263.5-1.5 261.77-1.4 260.02-1.2 258.27-1 256.6-0.68 254.92-0.35 253.57 0.1L253.57 0.1Q253.87-2.15 254.27-4.9 254.67-7.65 255.2-10.6 255.72-13.55 256.25-16.55 256.77-19.55 257.32-22.3L257.32-22.3Q258.57-28.85 259.97-35.65L259.97-35.65 268.72-36.8Q267.37-31 266.12-25.5L266.12-25.5Q265.57-23.15 265.02-20.63 264.47-18.1 263.97-15.7 263.47-13.3 263.07-11.05 262.67-8.8 262.42-7.05L262.42-7.05Q263.67-7.15 265.1-7.18 266.52-7.2 267.62-7.2L267.62-7.2Q267.67-6.25 267.77-5.33 267.87-4.4 268-3.65 268.12-2.9 268.2-2.33 268.27-1.75 268.32-1.55L268.32-1.55Q267.92-1.55 267.55-1.58 267.17-1.6 266.77-1.6L266.77-1.6ZM286.47-1Q285.22-0.8 283.72-0.55 282.22-0.3 281.02-0.1L281.02-0.1Q281.22-1.75 281.42-3.35L281.42-3.35Q281.57-4.75 281.69-6.15 281.82-7.55 281.92-8.55L281.92-8.55 277.57-8.55 275.57-1.35Q274.47-1.2 272.97-1.03 271.47-0.85 270.17-0.7L270.17-0.7Q268.57-0.5 267.02-0.3L267.02-0.3Q269.02-6.95 270.97-13.4L270.97-13.4Q271.77-16.1 272.64-19.05 273.52-22 274.39-24.93 275.27-27.85 276.07-30.55 276.87-33.25 277.47-35.5L277.47-35.5Q280.87-35.75 284.39-36.1 287.92-36.45 291.27-37.05L291.27-37.05Q291.12-35.45 290.94-33.08 290.77-30.7 290.62-27.9 290.47-25.1 290.32-22.05 290.17-19 290.02-16.05L290.02-16.05Q289.77-9.15 289.47-1.4L289.47-1.4Q287.97-1.15 286.47-1L286.47-1ZM281.87-26.1L278.77-13.55Q278.97-13.55 279.49-13.58 280.02-13.6 280.59-13.63 281.17-13.65 281.67-13.68 282.17-13.7 282.37-13.75L282.37-13.75Q282.37-14.05 282.44-14.78 282.52-15.5 282.59-16.43 282.67-17.35 282.77-18.45 282.87-19.55 282.97-20.6L282.97-20.6Q283.17-23.15 283.47-26.1L283.47-26.1 283.77-30.45 283.02-30.4 281.87-26.1ZM310.67-10.75Q309.47-8 307.99-5.98 306.52-3.95 304.89-2.58 303.27-1.2 301.62-0.55 299.97 0.1 298.42 0.1L298.42 0.1Q296.87 0.1 295.59-0.6 294.32-1.3 293.37-2.7 292.42-4.1 291.84-6.15 291.27-8.2 291.27-10.95L291.27-10.95Q291.27-15.65 292.57-20.23 293.87-24.8 296.22-28.45 298.57-32.1 301.79-34.33 305.02-36.55 308.92-36.55L308.92-36.55Q310.12-36.55 311.22-36.05 312.32-35.55 313.12-34.65 313.92-33.75 314.39-32.45 314.87-31.15 314.87-29.55L314.87-29.55Q314.87-29.25 314.87-28.93 314.87-28.6 314.82-28.25L314.82-28.25 308.27-26.5Q307.67-27.75 306.87-27.75L306.87-27.75Q306.07-27.75 305.19-26.83 304.32-25.9 303.47-24.43 302.62-22.95 301.82-21.13 301.02-19.3 300.42-17.45 299.82-15.6 299.44-13.93 299.07-12.25 299.07-11.2L299.07-11.2Q299.07-9.6 299.49-8.95 299.92-8.3 300.62-8.3L300.62-8.3Q301.17-8.3 301.87-8.72 302.57-9.15 303.17-9.83 303.77-10.5 304.27-11.35 304.77-12.2 304.97-13.05L304.97-13.05 310.67-10.75ZM326.56-2.45L310.41 0.05 316.96-35.5 332.76-36.85Q332.41-35.75 332.16-34.6L332.16-34.6Q331.91-33.65 331.69-32.63 331.46-31.6 331.31-30.8L331.31-30.8Q330.81-30.75 329.89-30.73 328.96-30.7 327.91-30.68 326.86-30.65 325.79-30.65 324.71-30.65 323.91-30.65L323.91-30.65 322.16-21.7Q323.71-21.8 325.06-21.85L325.06-21.85Q326.16-21.9 327.31-21.9 328.46-21.9 329.01-21.95L329.01-21.95Q328.81-20.55 328.64-19.2 328.46-17.85 328.21-16.45L328.21-16.45Q327.71-16.4 326.59-16.38 325.46-16.35 324.31-16.3L324.31-16.3Q323.01-16.25 321.46-16.2L321.46-16.2 319.76-7 327.06-8.15 326.56-2.45Z" opacity="1" transform="matrix(1,0,0,1,0,0)" fill="#00274c" class="wordmark-text-0" data-fill-palette-color="primary" id="text-0"></path></svg></g></svg></g></svg></g></svg></g><g><svg viewBox="0 0 62.01933294927513 61.88793605743346" height="61.88793605743346" width="62.01933294927513"><g><svg xmlns="http://www.w3.org/2000/svg" xmlns:xlink="http://www.w3.org/1999/xlink" version="1.1" x="0" y="0" viewBox="0.3999999999999999 0.5 47.2 47.10000000000001" enable-background="new 0 0 48 48" xml:space="preserve" height="61.88793605743346" width="62.01933294927513" class="icon-icon-0" data-fill-palette-color="accent" id="icon-0"><g fill="#00274c" data-fill-palette-color="accent"><g fill="#00274c" data-fill-palette-color="accent"><path fill="#00274c" d="M43.5 47.6H4.5c-1.1 0-2-0.9-2-2V12.8c0-1.1 0.9-2 2-2h38.9c1.1 0 2 0.9 2 2v32.8C45.4 46.7 44.5 47.6 43.5 47.6zM6.5 43.6h35V14.7h-35V43.6z" data-fill-palette-color="accent"></path></g><g fill="#00274c" data-fill-palette-color="accent"><path fill="#00274c" d="M45.6 14.7H2.4c-1.1 0-2-0.9-2-2 0-1.1 0.9-2 2-2h43.2c1.1 0 2 0.9 2 2C47.6 13.9 46.7 14.7 45.6 14.7z" data-fill-palette-color="accent"></path></g><g fill="#00274c" data-fill-palette-color="accent"><path fill="#00274c" d="M45.6 47.6H2.4c-1.1 0-2-0.9-2-2s0.9-2 2-2h43.2c1.1 0 2 0.9 2 2S46.7 47.6 45.6 47.6z" data-fill-palette-color="accent"></path></g><g fill="#00274c" data-fill-palette-color="accent"><path fill="#00274c" d="M43.5 14.7H4.4c-1.1 0-2-0.9-2-2V5.5c0-2.8 2.3-5 5-5h32.9c2.8 0 5 2.3 5 5v7.3C45.4 13.9 44.5 14.7 43.5 14.7zM6.4 10.8h35.1V5.5c0-0.6-0.5-1.1-1.1-1.1H7.5c-0.6 0-1.1 0.5-1.1 1.1V10.8z" data-fill-palette-color="accent"></path></g><g fill="#00274c" data-fill-palette-color="accent"><path fill="#00274c" d="M30.5 47.6h-13c-1.1 0-2-0.9-2-2V27.3c0-1.1 0.9-2 2-2h13c1.1 0 2 0.9 2 2v18.3C32.5 46.7 31.6 47.6 30.5 47.6zM19.4 43.6h9.1V29.3h-9.1V43.6z" data-fill-palette-color="accent"></path></g></g></svg></g></svg></g></svg></g><defs></defs></svg><rect width="395.52" height="49.74723623444742" fill="none" stroke="none" visibility="hidden"></rect></g></svg></g></svg>